<?xml version="1.0" encoding="utf-8"?>
<!-- Generator: Adobe Illustrator 27.5.0, SVG Export Plug-In . SVG Version: 6.00 Build 0)  -->
<svg version="1.1" xmlns="http://www.w3.org/2000/svg" xmlns:xlink="http://www.w3.org/1999/xlink" x="0px" y="0px"
	 viewBox="0 0 500 500" style="enable-background:new 0 0 500 500;" xml:space="preserve">
<g id="BACKGROUND">
	<rect style="fill:#FFFFFF;" width="500" height="500"/>
</g>
<g id="OBJECTS">
	<g>
		<g>
			<path style="fill:#C5E2F6;" d="M129.994,126.947c0,0,17.435-3.339,16.791-36.155c-0.644-32.816,43.64-34.087,120.95-36.473
				c77.311-2.387,131.213,4.773,148.393,51.313c17.18,46.539-6.013,76.77-55.835,85.521c-49.822,8.751-21.504,35.445,7.302,39.18
				c39.779,5.158,58.089,43.186,36.184,71.229c-21.905,28.043-47.952,32.744-54.371,66.167
				c-8.088,42.114-75.064,88.096-167.975,80.954C78.01,440.731,38.307,373.887,57.063,306.704
				c10.443-37.408,52.185-54.296,83.753-62.649c31.568-8.353,16.751-44.749-37.367-35.799s-61.871-47.031-32.789-62.586
				C96.423,131.889,106.801,136.493,129.994,126.947z"/>
			<g>
				<circle style="fill:#C5E2F6;" cx="117.14" cy="103.627" r="12.854"/>
				<circle style="fill:#C5E2F6;" cx="132.745" cy="79.244" r="8.462"/>
				<circle style="fill:#C5E2F6;" cx="88.222" cy="118.6" r="6.628"/>
				<circle style="fill:#C5E2F6;" cx="101.366" cy="78.116" r="9.212"/>
				<circle style="fill:#C5E2F6;" cx="156.606" cy="55.725" r="5.144"/>
			</g>
		</g>
		<g>
			<g>
				<g>
					<path style="fill:#9C9CFF;" d="M379.726,295.567l-0.695-0.569c0.189-0.231,18.91-23.393,24.835-56.629
						c5.464-30.646,0.847-76.392-52.179-120.285l0.572-0.692c23.557,19.5,39.665,41.001,47.873,63.906
						c6.572,18.337,8.123,37.604,4.612,57.265C398.769,272.019,379.915,295.336,379.726,295.567z"/>
				</g>
				<g>
					<path style="fill:#8F8BF7;" d="M359.221,124.012c0,0-16.889-3.328-22.506-13.663
						C331.098,100.014,346.453,101.503,359.221,124.012z"/>
				</g>
				<g>
					<path style="fill:#8F8BF7;" d="M372.997,137.837c0,0,2.587-22.995-3.704-29.96S356.491,115.622,372.997,137.837z"/>
				</g>
				<g>
					<path style="fill:#8F8BF7;" d="M370.979,135.473c0,0-20.461-10.808-29.242-7.495
						C332.955,131.29,344.269,142.724,370.979,135.473z"/>
				</g>
				<g>
					<path style="fill:#8F8BF7;" d="M381.314,148.348c0,0-20.461-10.808-29.242-7.495S354.605,155.599,381.314,148.348z"/>
				</g>
				<g>
					<path style="fill:#8F8BF7;" d="M391.275,162.553c0,0-20.461-10.808-29.242-7.495S364.566,169.804,391.275,162.553z"/>
				</g>
				<g>
					<path style="fill:#8F8BF7;" d="M399.516,180.202c0,0-19.53-12.411-28.548-9.813
						C361.949,172.987,372.311,185.291,399.516,180.202z"/>
				</g>
				<g>
					<path style="fill:#8F8BF7;" d="M405.128,201.725c0,0-16.456-16.268-25.82-15.64S377.463,200.933,405.128,201.725z"/>
				</g>
				<g>
					<path style="fill:#8F8BF7;" d="M406.123,225.982c0,0-10.384-20.679-19.457-23.081
						C377.593,200.499,380.167,216.378,406.123,225.982z"/>
				</g>
				<g>
					<path style="fill:#8F8BF7;" d="M400.995,252.08c0,0-2.883-22.96-10.633-28.253C382.612,218.533,379.735,234.359,400.995,252.08
						z"/>
				</g>
				<g>
					<path style="fill:#8F8BF7;" d="M391.321,276.048c0,0,2.475-23.007-3.849-29.941
						C381.147,239.172,374.707,253.913,391.321,276.048z"/>
				</g>
				<g>
					<path style="fill:#8F8BF7;" d="M384.534,152.389c0,0,8.8-17.867,5.205-30.403c-3.595-12.536-10.11-1.976-9.661,5.438
						C380.527,134.839,384.534,152.389,384.534,152.389z"/>
				</g>
				<g>
					<path style="fill:#8F8BF7;" d="M392.315,164.917c0,0,11.515-16.251,9.947-29.197c-1.567-12.947-9.671-3.55-10.399,3.842
						C391.134,146.954,392.315,164.917,392.315,164.917z"/>
				</g>
				<g>
					<path style="fill:#8F8BF7;" d="M398.784,178.716c0,0,14.968-13.139,16.444-26.096c1.476-12.957-8.584-5.695-11.007,1.327
						C401.799,160.968,398.784,178.716,398.784,178.716z"/>
				</g>
				<g>
					<path style="fill:#8F8BF7;" d="M403.952,195.341c0,0,14.968-13.139,16.444-26.096c1.476-12.957-8.584-5.695-11.007,1.327
						C406.967,177.593,403.952,195.341,403.952,195.341z"/>
				</g>
				<g>
					<path style="fill:#8F8BF7;" d="M406.123,216.326c0,0,16.537-11.1,19.671-23.759c3.134-12.659-7.779-6.754-11.086-0.103
						C411.401,199.115,406.123,216.326,406.123,216.326z"/>
				</g>
				<g>
					<path style="fill:#8F8BF7;" d="M403.396,242.18c0,0,18.343-7.759,23.823-19.593c5.48-11.834-6.355-8.108-10.865-2.206
						C411.845,226.283,403.396,242.18,403.396,242.18z"/>
				</g>
				<g>
					<path style="fill:#8F8BF7;" d="M396.621,264.125c0,0,19.528-3.916,27.274-14.407c7.746-10.491-4.597-9.219-10.2-4.343
						S396.621,264.125,396.621,264.125z"/>
				</g>
			</g>
			<g>
				<g>
					<path style="fill:#625DBD;" d="M379.193,341.986c0,0,23.146-17.994,33.457-12.641c10.311,5.354,17.557-8.268,25.337-8.348
						s14.908,7.067,3.435,15.259c-11.473,8.192-11.499,9.392-8.81,19.008s-16.513,15.49-25.811,16.861
						c-9.298,1.371,7.692,5.82-0.692,11.873c-8.384,6.053-32.397-0.771-47.413-11.514c-15.016-10.744,7.522-38.124,15.093-39.418
						C381.359,331.772,373.602,340.334,379.193,341.986z"/>
				</g>
				<g>
					<path style="fill:#5454AF;" d="M399.412,379.706c7.292-9.549-8.216-10.56-6.418-14.155
						c4.176-10.022,29.657-20.164,22.487-35.172c-0.919-0.195-1.861-0.53-2.831-1.034c-10.311-5.354-33.457,12.641-33.457,12.641
						c-5.591-1.652,2.166-10.214-5.405-8.92c-7.571,1.294-30.109,28.674-15.093,39.418c9.265,6.629,21.952,11.761,32.283,13.301
						C394.904,384.726,397.644,382.535,399.412,379.706z"/>
				</g>
				<g>
					<g>
						<path style="fill:#8375EE;" d="M354.521,368.504c-0.207-0.088-0.365-0.279-0.4-0.518c-0.054-0.365,0.199-0.705,0.564-0.758
							c0.38-0.056,38.553-5.981,84.795-40.689c0.295-0.222,0.715-0.163,0.935,0.133c0.222,0.295,0.162,0.714-0.133,0.935
							c-46.535,34.928-85.02,40.886-85.403,40.942C354.753,368.569,354.631,368.55,354.521,368.504z"/>
					</g>
					<g>
						<path style="fill:#8375EE;" d="M425.785,336.892l3.842-10.749c0.124-0.347,0.506-0.529,0.854-0.404
							c0.343,0.126,0.528,0.507,0.404,0.854l-3.323,9.3l7.746,1.595c0.366,0.075,0.595,0.428,0.52,0.789
							c-0.074,0.362-0.428,0.595-0.789,0.52L425.785,336.892z"/>
					</g>
					<g>
						<path style="fill:#8375EE;" d="M427.788,359.209c-0.019-0.008-0.038-0.017-0.057-0.027l-20.626-11.13l4.298-16.044
							c0.096-0.356,0.462-0.568,0.819-0.472c0.359,0.094,0.568,0.462,0.472,0.819l-4.024,15.023l19.696,10.629
							c0.325,0.176,0.446,0.581,0.271,0.906C428.472,359.217,428.102,359.342,427.788,359.209z"/>
					</g>
					<g>
						<path style="fill:#8375EE;" d="M408.191,369.998c-0.009-0.004-0.019-0.008-0.027-0.012l-23.475-11.23l7.672-21.83
							c0.123-0.349,0.504-0.532,0.852-0.409c0.357,0.136,0.531,0.504,0.409,0.852l-7.275,20.698l22.392,10.713
							c0.333,0.159,0.474,0.558,0.315,0.891C408.9,369.995,408.518,370.137,408.191,369.998z"/>
					</g>
					<g>
						<path style="fill:#8375EE;" d="M398.483,381.725c-0.008-0.004-0.017-0.007-0.025-0.011l-33.708-15.969l7.437-26.338
							c0.101-0.355,0.47-0.562,0.825-0.462c0.354,0.104,0.562,0.47,0.462,0.825l-7.131,25.252l32.686,15.486
							c0.333,0.158,0.476,0.556,0.318,0.89C399.194,381.721,398.811,381.864,398.483,381.725z"/>
					</g>
				</g>
			</g>
			<g>
				<g>
					<path style="fill:#8375EE;" d="M334.68,338.924c0,0,19.172-34.45,34.75-33.252c15.577,1.198,17.375-19.472,26.961-23.666
						c9.586-4.194,22.168,0.899,12.282,17.075c-9.886,16.177-9.287,17.674-0.899,28.159s-12.282,27.86-23.067,34.45
						c-10.784,6.59,12.582,3.154,5.392,15.057c-7.19,11.904-40.497,16.098-64.734,10.705c-24.237-5.392-10.757-51.137-2.069-56.723
						C331.984,325.144,326.891,339.823,334.68,338.924z"/>
				</g>
				<g>
					<path style="fill:#6F6AE5;" d="M352.364,357.265c26.062-2.696,50.515-24.067,41.528-54.623
						c-0.814-4.882,2.782-13.444,3.472-21.024c-0.327,0.12-0.653,0.248-0.974,0.389c-9.586,4.194-11.384,24.864-26.961,23.666
						c-15.577-1.198-34.75,33.252-34.75,33.252c-7.789,0.899-2.696-13.78-11.383-8.194c-8.687,5.586-22.168,51.331,2.069,56.723
						c7.64,1.7,16.18,2.445,24.519,2.298C353.647,385.772,352.504,362.95,352.364,357.265z"/>
				</g>
				<g>
					<g>
						<path style="fill:#9994FF;" d="M318.105,384.726c-0.303,0-0.599-0.153-0.768-0.431c-0.259-0.424-0.125-0.977,0.299-1.235
							c0.441-0.269,44.561-27.693,83.518-94.982c0.248-0.43,0.799-0.578,1.228-0.327c0.43,0.248,0.577,0.799,0.327,1.228
							c-39.204,67.716-83.693,95.345-84.138,95.616C318.426,384.683,318.265,384.726,318.105,384.726z"/>
					</g>
					<g>
						<path style="fill:#9994FF;" d="M389.656,308.098l-0.903-15.324c-0.03-0.495,0.348-0.921,0.844-0.95
							c0.491-0.025,0.921,0.349,0.95,0.844l0.782,13.258l10.425-2.104c0.492-0.099,0.961,0.217,1.059,0.703
							c0.098,0.487-0.217,0.961-0.703,1.059L389.656,308.098z"/>
					</g>
					<g>
						<path style="fill:#9994FF;" d="M403.881,334.661c-0.028,0-0.056-0.001-0.084-0.004l-31.383-2.918l-3.125-22.116
							c-0.069-0.491,0.273-0.946,0.764-1.015c0.493-0.073,0.946,0.273,1.015,0.764l2.927,20.709l29.968,2.786
							c0.494,0.047,0.857,0.484,0.812,0.979C404.731,334.312,404.34,334.661,403.881,334.661z"/>
					</g>
					<g>
						<path style="fill:#9994FF;" d="M385.307,358.327c-0.013,0-0.027,0-0.04-0.001l-34.961-1.542l-1.995-31.052
							c-0.032-0.496,0.344-0.923,0.839-0.955c0.513-0.02,0.922,0.344,0.955,0.839l1.891,29.443l33.349,1.472
							c0.496,0.022,0.88,0.441,0.858,0.937C386.183,357.951,385.786,358.327,385.307,358.327z"/>
					</g>
					<g>
						<path style="fill:#9994FF;" d="M379.466,377.948c-0.012,0-0.025,0-0.037-0.001l-50.118-2.021l-4.659-36.508
							c-0.062-0.492,0.285-0.943,0.778-1.006c0.493-0.057,0.943,0.286,1.006,0.778l4.466,35.002l48.6,1.96
							c0.496,0.02,0.882,0.438,0.862,0.934C380.344,377.569,379.945,377.948,379.466,377.948z"/>
					</g>
				</g>
			</g>
			<g>
				<g>
					<g>
						<path style="fill:#9C9CFF;" d="M329.097,297.155c0,0,4.379-39.182,19.21-44.093c14.832-4.911,8.506-24.672,15.729-32.242
							c7.222-7.571,20.795-7.733,17.924,11.007s-1.74,19.89,10.047,26.321c11.787,6.432-0.569,30.442-7.971,40.686
							c-7.402,10.244,12.824-1.95,10.789,11.806c-2.034,13.757-31.137,30.489-55.576,34.877
							c-24.439,4.387-29.673-43.014-23.817-51.523C321.288,285.486,322.26,300.993,329.097,297.155z"/>
					</g>
				</g>
				<g>
					<path style="fill:#8585FF;" d="M352.771,250.707c-1.227,0.965-2.69,1.769-4.463,2.356c-14.832,4.911-19.21,44.093-19.21,44.093
						c-6.837,3.837-7.809-11.669-13.665-3.161c-5.856,8.508-0.622,55.91,23.817,51.523c1.312-0.236,2.64-0.514,3.975-0.818
						C354.58,314.836,357.761,282.609,352.771,250.707z"/>
				</g>
				<g>
					<g>
						<path style="fill:#AEAEFF;" d="M331.499,345.804c-0.279,0.117-0.611,0.09-0.875-0.101c-0.403-0.291-0.492-0.853-0.201-1.255
							c0.302-0.419,30.407-42.755,40.353-119.869c0.063-0.493,0.513-0.842,1.006-0.776c0.493,0.063,0.84,0.514,0.776,1.006
							c-10.008,77.603-40.374,120.271-40.68,120.693C331.779,345.641,331.646,345.742,331.499,345.804z"/>
					</g>
					<g>
						<path style="fill:#AEAEFF;" d="M367.902,247.488l-6.751-13.786c-0.219-0.445-0.034-0.984,0.412-1.202
							c0.443-0.212,0.984-0.033,1.202,0.412l5.842,11.927l8.804-5.967c0.416-0.282,0.97-0.171,1.249,0.239
							c0.279,0.411,0.171,0.97-0.239,1.249L367.902,247.488z"/>
					</g>
					<g>
						<path style="fill:#AEAEFF;" d="M391.282,266.495c-0.026,0.011-0.052,0.021-0.079,0.029l-30.074,9.429l-11.425-19.193
							c-0.254-0.427-0.114-0.978,0.313-1.232c0.427-0.258,0.978-0.114,1.232,0.313l10.698,17.971l28.719-9.004
							c0.474-0.148,0.978,0.116,1.127,0.589C391.931,265.845,391.705,266.318,391.282,266.495z"/>
					</g>
					<g>
						<path style="fill:#AEAEFF;" d="M383.29,295.499c-0.012,0.005-0.025,0.01-0.038,0.015l-32.843,12.08l-13.833-27.872
							c-0.221-0.445-0.039-0.984,0.405-1.205c0.466-0.217,0.984-0.039,1.205,0.405l13.116,26.428l31.33-11.523
							c0.466-0.171,0.982,0.067,1.154,0.533C383.953,294.813,383.732,295.314,383.29,295.499z"/>
					</g>
					<g>
						<path style="fill:#AEAEFF;" d="M385.48,315.854c-0.011,0.005-0.023,0.009-0.034,0.013l-47.01,17.493l-18.398-31.875
							c-0.248-0.43-0.101-0.98,0.329-1.228c0.433-0.243,0.981-0.1,1.228,0.329l17.638,30.561l45.586-16.963
							c0.465-0.173,0.983,0.063,1.156,0.528C386.144,315.165,385.922,315.669,385.48,315.854z"/>
					</g>
				</g>
			</g>
		</g>
		<g>
			<g>
				<g>
					<g>
						<path style="fill:#625DBD;" d="M325.254,401.608h-144.93c-10.258,0-18.573-8.315-18.573-18.573V75.524
							c0-10.258,8.315-18.573,18.573-18.573h144.93c10.258,0,18.573,8.315,18.573,18.573v307.512
							C343.827,393.293,335.511,401.608,325.254,401.608z"/>
						<path style="fill:#8375EE;" d="M324.47,395.161H181.107c-7.806,0-14.135-6.328-14.135-14.135V76.477
							c0-7.806,6.328-14.135,14.135-14.135H324.47c7.806,0,14.135,6.328,14.135,14.135v304.549
							C338.604,388.833,332.276,395.161,324.47,395.161z"/>
						<path style="fill:#625DBD;" d="M264.921,387.499h-29.882c-3.46,0-6.291-2.831-6.291-6.291l0,0c0-3.46,2.831-6.291,6.291-6.291
							h29.882c3.46,0,6.291,2.831,6.291,6.291l0,0C271.212,384.668,268.381,387.499,264.921,387.499z"/>
						<circle style="fill:#625DBD;" cx="185.83" cy="73.628" r="4.723"/>
						<circle style="fill:#625DBD;" cx="198.487" cy="73.628" r="2.846"/>
					</g>
					<rect x="173.403" y="86.21" style="fill:#FFFFFF;" width="157.572" height="281.517"/>
					<path style="fill:#E6E8FF;" d="M314.2,129.647H190.317c-3.805,0-6.89-3.085-6.89-6.89v-21.569c0-3.805,3.085-6.89,6.89-6.89
						H314.2c3.805,0,6.89,3.085,6.89,6.89v21.569C321.09,126.562,318.005,129.647,314.2,129.647z"/>
					<g>
						
							<text transform="matrix(1 0 0 1 198.147 115.1445)" style="fill:#B9BDEA; font-family:'Montserrat-SemiBold'; font-size:11.9948px;">Monday 11.00 AM</text>
					</g>
				</g>
				<g>
					<g>
						<g>
							<rect x="183.427" y="140.197" style="fill:#E6E8FF;" width="28.198" height="28.198"/>
							<rect x="219.915" y="140.197" style="fill:#E6E8FF;" width="28.198" height="28.198"/>
							<rect x="256.404" y="140.197" style="fill:#E6E8FF;" width="28.198" height="28.198"/>
							<rect x="292.892" y="140.197" style="fill:#E6E8FF;" width="28.198" height="28.198"/>
						</g>
						<g>
							<rect x="183.427" y="176.256" style="fill:#E6E8FF;" width="28.198" height="28.198"/>
							<rect x="219.915" y="176.256" style="fill:#E6E8FF;" width="28.198" height="28.198"/>
							<rect x="256.404" y="176.256" style="fill:#E6E8FF;" width="28.198" height="28.198"/>
							<rect x="292.892" y="176.256" style="fill:#E6E8FF;" width="28.198" height="28.198"/>
						</g>
						<g>
							<rect x="183.427" y="212.315" style="fill:#E6E8FF;" width="28.198" height="28.198"/>
							<rect x="219.915" y="212.315" style="fill:#E6E8FF;" width="28.198" height="28.198"/>
							<g>
								<rect x="256.404" y="212.315" style="fill:#FFC608;" width="28.198" height="28.198"/>
							</g>
							<rect x="292.892" y="212.315" style="fill:#E6E8FF;" width="28.198" height="28.198"/>
						</g>
						<g>
							<rect x="183.427" y="248.374" style="fill:#E6E8FF;" width="28.198" height="28.198"/>
							<rect x="219.915" y="248.374" style="fill:#E6E8FF;" width="28.198" height="28.198"/>
							<rect x="256.404" y="248.374" style="fill:#E6E8FF;" width="28.198" height="28.198"/>
							<rect x="292.892" y="248.374" style="fill:#E6E8FF;" width="28.198" height="28.198"/>
						</g>
					</g>
				</g>
				<g>
					<g>
						<g>
							<path style="fill:#E6E8FF;" d="M299.746,314.971c-0.497,0-0.899,0.402-0.899,0.899v20.213c0,2.211-1.799,4.01-4.01,4.01
								h-3.187c-1.061,0-2.062-0.411-2.818-1.157l-45.212-44.64c-1.094-1.079-2.543-1.675-4.081-1.675h-42.748
								c-1.906,0-3.632,0.891-4.735,2.444c-1.104,1.554-1.377,3.476-0.749,5.275l1.967,5.638c0.813,2.33,3.016,3.895,5.483,3.895
								h30.99c1.072,0,2.079,0.417,2.836,1.174l11.189,11.19c1.397,1.396,1.365,3.174,0.869,4.37
								c-0.496,1.197-1.729,2.476-3.705,2.476h-25.479c-3.202,0-5.808,2.605-5.808,5.807v5.91c0,3.202,2.605,5.807,5.808,5.807
								h28.152c2.211,0,4.01,1.799,4.01,4.078c0,2.211-1.799,4.01-4.01,4.01h-56.315v1.797h56.315c3.202,0,5.808-2.605,5.808-5.876
								c0-3.202-2.605-5.807-5.808-5.807h-28.152c-2.211,0-4.01-1.799-4.01-4.01v-5.91c0-2.211,1.799-4.01,4.01-4.01h25.479
								c2.394,0,4.45-1.374,5.365-3.585c0.916-2.212,0.434-4.637-1.259-6.329l-11.189-11.19c-1.096-1.097-2.554-1.701-4.106-1.701
								h-30.99c-1.703,0-3.225-1.08-3.786-2.689l-1.967-5.638c-0.434-1.243-0.245-2.57,0.517-3.643
								c0.762-1.072,1.954-1.688,3.27-1.688h42.748c1.062,0,2.062,0.411,2.818,1.157l45.213,44.64
								c1.094,1.079,2.543,1.675,4.08,1.675h3.187c3.203,0,5.807-2.605,5.807-5.807v-20.213
								C300.644,315.373,300.242,314.971,299.746,314.971z"/>
						</g>
						<g>
							<path style="fill:#B9BDEA;" d="M311.878,295.607c0,6.701-12.132,24.49-12.132,24.49s-12.132-17.789-12.132-24.49
								s5.432-12.132,12.132-12.132S311.878,288.906,311.878,295.607z"/>
							<circle style="fill:#8375EE;" cx="299.746" cy="295.045" r="6.516"/>
						</g>
					</g>
					<circle style="fill:#B9BDEA;" cx="190.928" cy="355.595" r="6.965"/>
					<circle style="fill:#8375EE;" cx="190.928" cy="355.595" r="3.595"/>
				</g>
			</g>
			<g>
				<g>
					<g>
						<g>
							<path style="fill:#FFAE83;" d="M116.109,206.438c0,0,2.896,21.39,2.752,27.103s-4.028,24.562-5.467,30.382
								c-1.439,5.821-3.453,10.671-1.151,15.384c2.302,4.712,1.87,9.424,2.158,12.057c0.288,2.633,0.671,3.419,0.048,3.603
								c-0.623,0.185-3.072-1.848-3.25-3.442c-0.178-1.594-0.418-3.696-0.658-4.296s-2.23,1.64-1.942,3.534
								c0.288,1.894,0.623,2.726,0.623,2.726l-0.652,2.726c0,0-5.342-3.465-5.918-7.253s-0.575-6.652,0.815-11.041
								s-0.048-36.218,2.254-43.795c2.302-7.576-2.685-30.582-2.685-30.582L116.109,206.438z"/>
							<path style="fill:#F9A37D;" d="M116.427,208.853c-0.194-1.495-0.319-2.415-0.319-2.415l-13.072-2.894
								c0,0,4.987,23.006,2.685,30.582c-1.667,5.487-1.803,31.486-2.042,42.778c7.714-31.775,2.796-45.628,8.912-63.978
								C113.181,211.748,114.546,209.804,116.427,208.853z"/>
							<path style="fill:#FFB797;" d="M103.947,279.815c0,0,3.069-1.016,4.268,0.739s-1.343,5.035-1.63,6.421
								c-0.288,1.386-0.144,3.28,0,3.603c0.144,0.323-0.096,0.924-0.096,0.924s1.435,1.097,2.046,1.432s2.558,0.508,3.181,1.755
								c-1.582,1.155-4.223-0.137-5.924-0.715c-1.7-0.578-3.192-1.825-3.501-3.442c-0.309-1.617-0.407-7.407,0.266-8.924
								C103.228,280.093,103.445,279.948,103.947,279.815z"/>
							<path style="fill:#FFB797;" d="M102.748,291.087c0,0,0.336,3.742,3.213,5.128c2.877,1.386,7.577,1.571,8.871,0.878
								c0.288-1.155-3.529-1.886-4.651-2.402c-1.123-0.516-5.754-3.465-5.754-3.603
								C104.427,290.949,102.748,291.087,102.748,291.087z"/>
							<path style="fill:#FFB797;" d="M104.571,294.552c0,0,0.167,1.709,2.313,2.933c2.146,1.225,5.407,2.657,5.983,2.703
								c0.575,0.046,0.336-2.495-1.678-3.326S104.571,294.552,104.571,294.552z"/>
						</g>
						<path style="fill:#F4AE00;" d="M102.173,171.755c0,0-3.165,13.554-4.124,34.683c5.563,2.65,20.811,1.264,20.811,1.264
							c-0.384-2.679-0.863-3.419-0.384-4.527c0.48-1.109-0.575-8.513-5.083-13.265C108.886,185.158,105.146,173.135,102.173,171.755
							z"/>
					</g>
					<g>
						<path style="fill:#FFAE83;" d="M128.835,335.113c0.384,6.283-0.767,25.685,4.412,46.012
							c5.179,20.327,7.097,30.859,7.097,33.631c4.795,1.294,8.44-0.739,8.44-0.739s-0.575-25.316,0-39.544
							c0.575-14.229,0-55.991-1.343-65.415c-0.659-4.625-0.9-10.897-0.795-16.981l-27.074,3.065
							C123.277,312.538,128.557,330.575,128.835,335.113z"/>
						<path style="fill:#F9A37D;" d="M136.856,328.858c0.794-4.764,6.498-6.716,11.536-5.248
							c-0.249-6.552-0.569-11.867-0.952-14.553c-0.659-4.625-0.9-10.897-0.795-16.981l-27.074,3.065
							c3.707,17.397,8.987,35.433,9.264,39.971c0.384,6.283-0.767,25.685,4.412,46.012c5.179,20.327,7.097,30.859,7.097,33.631
							c1.384,0.373,2.667,0.465,3.8,0.413C141.355,386.285,132.93,357.915,136.856,328.858z"/>
						<path style="fill:#FFAE83;" d="M176.116,238.007c-4.603-7.761-50.35-3.049-50.35-3.049s-11.509,20.696-9.399,41.208
							c0.586,5.695,1.779,12.288,3.204,18.976l27.074-3.065c0.109-6.312,0.589-12.423,1.371-16.28
							c3.261,7.392,4.603,34.37,3.261,55.067c-1.343,20.696,3.334,58.393,0.516,74.285c-2.051,10.902-0.516,12.381,6.389,12.473
							c7.097-0.554,3.836-6.93,3.069-12.75c-0.767-5.821,7.385-23.56,10.262-40.746s2.61-29.936,2.744-39.914
							c0.133-9.979,6.463-28.272,7.039-43.24S180.719,245.768,176.116,238.007z"/>
						<path style="fill:#F9A37D;" d="M181.295,280.97c0.575-14.968-0.575-35.202-5.179-42.963c-4.603-7.761-50.35-3.049-50.35-3.049
							s-11.509,20.696-9.399,41.208c0.586,5.695,1.779,12.288,3.204,18.976l27.074-3.065c0.109-6.312,0.589-12.423,1.371-16.28
							c3.261,7.392,4.603,34.37,3.261,55.067c-1.343,20.696,3.334,58.393,0.516,74.285c-1.834,9.752-0.796,11.962,4.385,12.387
							c-2.952-12.38,8.757-25.112,4.944-36.551c-8.088-18.873-3.595-38.644,0-56.618c0.693-5.546,7.267-2.002,13.125,0.733
							c0.003-0.296,0.006-0.597,0.01-0.888C174.39,314.232,180.719,295.938,181.295,280.97z"/>
						<path style="fill:#413C7B;" d="M119.931,247.077c0,0-10.44,8.388-6.793,33.701c3.647,25.313,7.991,36.099,7.991,36.099
							s27.466,5.589,56.646-3.572c3.657-21.293,12.255-56.942-3.473-78.061C150.037,236.742,119.931,247.077,119.931,247.077z"/>
						<path style="fill:#31345A;" d="M135.059,263.253c12.764-10.371,32.6-8.716,43.184-21.411c-1.101-2.32-2.401-4.531-3.941-6.599
							c-24.265,1.498-54.371,11.833-54.371,11.833s-10.44,8.388-6.793,33.701c3.647,25.313,7.991,36.099,7.991,36.099
							s1.232,0.249,3.43,0.555C116.411,299.045,120.017,275.679,135.059,263.253z"/>
						<g>
							<path style="fill:#101431;" d="M149.286,412.008c0,0-7.912-1.178-9.423,1.663c-1.511,2.841-2.356,9.771-1.876,11.434
								c2.206,2.217,10.979,1.023,14.438-0.106C155.885,423.869,149.286,412.008,149.286,412.008z"/>
							<path style="fill:#171F42;" d="M152.816,419.944c0.137,1.282-0.096,2.245-0.966,2.529
								c-3.255,1.063-11.215,2.182-13.981,0.462c-0.041,0.965-0.006,1.742,0.118,2.17c2.206,2.217,10.979,1.023,14.438-0.106
								C153.808,424.547,153.583,422.381,152.816,419.944z"/>
						</g>
						<g>
							<path style="fill:#101431;" d="M150.743,411.523c0.335-0.17,6.234-3.696,11.775,0c1.418,3.326,0.842,8.408,1.993,11.734
								s5.847,13.152,3.161,17.495c-5.083,2.31-16.416,2.184-16.416,2.184s-3.362-6.189-2.486-11.733
								c0.876-5.544,1.068-4.065,0.684-9.517S149.004,412.404,150.743,411.523z"/>
							<path style="fill:#171F42;" d="M151.085,422.194c0,0,3.884,7.207,3.165,10.671c-0.719,3.465-4.316,5.959-3.165,9.701
								s14.961-0.693,16.256-1.525s0.432-2.539-2.446-7.922c-2.877-5.383-2.446-7.6-2.302-10.926
								c0.144-3.326-2.446-5.128-5.371-5.59S149.406,417.898,151.085,422.194z"/>
						</g>
					</g>
					<path style="fill:#FFC608;" d="M102.173,171.755c0,0,29.155-24.756,67.709-21.245c0.959,4.25,3.644,19.957,0,33.262
						c-3.644,13.305-0.319,25.685,1.855,28.827c2.173,3.141,6.969,22.729,8.503,29.751c-16.688,12.196-56.717,9.055-64.131,7.391
						c8.123-21.066,12.151-30.675,9.657-34.001c-2.494-3.326-4.603-3.511-4.603-6.098c0-2.587-1.534-4.804-2.685-6.468
						c-1.151-1.663-0.575-2.837-1.343-5.299s-6.138-7.082-8.44-10.962C106.393,183.033,102.173,171.755,102.173,171.755z"/>
					<path style="fill:#F4AE00;" d="M139.552,230.002c13.585-24.623,34.382-52.454,18.45-79.704
						c-32.504,1.674-55.83,21.458-55.83,21.458s4.22,11.278,6.522,15.158c2.302,3.881,7.672,8.5,8.44,10.962
						c0.767,2.462,0.192,3.636,1.343,5.299c1.151,1.663,2.685,3.881,2.685,6.468c0,2.587,2.11,2.772,4.603,6.098
						c2.494,3.326-1.534,12.935-9.657,34.001c3.027,0.679,11.492,1.603,21.584,1.631
						C136.027,243.858,136.396,236.314,139.552,230.002z"/>
					<g>
						<path style="fill:#FFAE83;" d="M178.27,158.295c0,0,6.522-1.848,8.44-2.864c1.918-1.016,7.385-15.707,7.672-20.142
							c0.288-4.435-2.206-6.19-2.206-9.979s5.658-17.832,7.385-18.109c1.726-0.277,1.007,2.853,0,5.313
							c-1.007,2.46-1.87,5.613-1.582,6.237s1.349,0.104,2.086-0.087s1.367,0.191,1.421,1.906c0.036,0.468,1.78-0.295,2.05,1.576
							c0.216,0.485,1.672,0.173,1.798,1.836c0.126,1.663-0.737,4.331-3.327,5.717c-0.503,1.317,2.014,13.582-0.072,22.59
							c-2.086,9.008-2.302,9.147-3.956,10.464s-8.056,5.959-16.4,8.731C173.235,174.256,178.27,158.295,178.27,158.295z"/>
						<path style="fill:#F9A37D;" d="M196.058,130.808c-1.234-3.084-2.89-5.321-3.518-7.874c-0.231,0.975-0.365,1.797-0.365,2.377
							c0,3.788,2.494,5.544,2.206,9.979c-0.288,4.435-5.754,19.125-7.672,20.142c-1.918,1.016-8.44,2.864-8.44,2.864
							s-1.238,3.93-1.468,7.551C192.163,163.569,200.005,145.805,196.058,130.808z"/>
						<path style="fill:#FFC608;" d="M169.882,150.51c0,0,2.781,0.601,3.788,3.788c1.007,3.188,7.761,1.111,8.121,1.111
							c3.956,4.227,3.891,6.719,4.035,12.332s-3.668,8.662-4.244,9.078c-2.661,0.346-9.806,2.749-11.7,6.953
							C168.204,177.166,169.115,150.949,169.882,150.51z"/>
					</g>
				</g>
				<path style="fill:#101431;" d="M162.401,150.169c1.913,0.024,4.987,0.341,4.987,0.341s-6.138-0.924-8.248-4.62
					c-2.11-3.696-3.069-7.207-1.534-13.305s-1.895-15.735-4.795-19.033c-3.541-4.027-12.135-5.887-15.73-2.404
					c0,0-7.287-3.324-12.466,4.622s-4.603,30.12-7.097,34.74c-2.494,4.62-11.149,16.643-8.056,27.533
					c1.488,5.238,4.203,8.493,6.646,11.202c-3.217-7.923-2.044-17.139-1.668-19.485c0.135,3.51,0.616,9.923,2.308,15.306
					c2.471,7.864-0.929,9.768,4.044,20.221c-2.134-7.976-1.236-11.29-0.674-14.66c0.248-1.489,0.649-3.164,0.914-4.991
					c0.708,5.54,0.127,9.72,0.021,11.231c0.054,0.327,0.099,0.659,0.109,1.008c0.192,6.592,0.959,15.093,14.386,21.375
					c-3.453-6.468-3.453-16.696,3.644-21.375c7.097-4.68,8.823-17.43,8.056-20.756c4.028,4.989,2.302,14.413-1.343,18.664
					c-3.644,4.25-6.905,11.272-4.699,18.294c1.439-10.533,5.083-10.902,10.646-17.37c5.562-6.468,10.741-19.539,6.713-31.852
					c3.836,3.21,6.138,19.656-1.343,31.297c9.015-10.348,8.098-32.435,4.923-39.175
					C158.969,150.238,160.489,150.145,162.401,150.169z"/>
				<g>
					<path style="fill:#131938;" d="M162.401,150.169c1.913,0.024,4.987,0.341,4.987,0.341s-6.138-0.924-8.248-4.62
						c-2.11-3.696-3.069-7.207-1.534-13.305s-1.895-15.735-4.795-19.033c-2.192-2.492-6.319-4.151-9.998-4.23
						c-2.8,0.314-5.267,1.465-6.855,3.847c-6.291,11.683,2.696,22.467,5.392,33.252c1.797,6.291,2.696,13.48-0.899,19.771
						c-8.691,15.933-15.617,37.113-5.287,52.263c-3.048-6.483-2.788-16.087,4.028-20.582c7.097-4.68,8.823-17.43,8.056-20.756
						c4.028,4.989,2.302,14.413-1.343,18.664c-3.644,4.25-6.905,11.272-4.699,18.294c1.439-10.533,5.083-10.902,10.646-17.37
						c5.562-6.468,10.741-19.539,6.713-31.852c3.836,3.21,6.138,19.656-1.343,31.297c9.015-10.348,8.098-32.435,4.923-39.175
						C158.969,150.238,160.489,150.145,162.401,150.169z"/>
					<path style="fill:#0D1128;" d="M140.451,166.194c3.595-6.291,2.696-13.48,0.899-19.771
						c-2.696-10.784-11.683-21.569-5.392-33.252c1.588-2.382,4.055-3.534,6.855-3.847c-2.265-0.049-4.362,0.498-5.731,1.825
						c0,0-7.287-3.324-12.466,4.622s-4.603,30.12-7.097,34.74c-2.494,4.62-11.149,16.643-8.056,27.533
						c1.488,5.238,4.203,8.493,6.646,11.202c-3.217-7.923-2.044-17.139-1.668-19.485c0.135,3.51,0.616,9.923,2.308,15.306
						c2.471,7.864-0.929,9.768,4.044,20.221c-2.134-7.976-1.236-11.29-0.674-14.66c0.248-1.489,0.649-3.164,0.914-4.991
						c0.708,5.54,0.127,9.72,0.021,11.231c0.054,0.327,0.099,0.659,0.109,1.008c0.192,6.592,0.959,15.093,14.386,21.375
						c-0.137-0.256-0.258-0.527-0.383-0.794C124.834,203.307,131.761,182.127,140.451,166.194z"/>
				</g>
			</g>
		</g>
	</g>
</g>
</svg>
